# xmcd CD database file
#
# Track frame offsets:
#	182
#	11220
#	23610
#	37920
#	49560
#	63527
#	75685
#	87780
#	100635
#	113882
#	127007
#
# Disc length: 1845 seconds
#
# Revision: 1
# Processed by: cddbd v1.5.2PL0 Copyright (c) Steve Scherf et al.
# Submitted via: CDex 1.51
#
DISCID=7f07330b
DTITLE=Conway Twitty - Conway Twitty's Greatest Hits Vol. 1
DYEAR=1972
DGENRE=Country
TTITLE0=Hello Darlin'
TTITLE1=I Wonder What She'll Think About Leaving
TTITLE2=Fifteen Years Ago
TTITLE3=Darling, You Know I Wouldn't Lie
TTITLE4=That's When She Started To Stop Loving You
TTITLE5=To See My Angel Cry
TTITLE6=I Can't See Me Without You
TTITLE7=Next In Line
TTITLE8=How Much More Can She Stand
TTITLE9=The Image Of Me
TTITLE10=I Love You More Today
EXTD=YEAR: 1972
EXTT0=
EXTT1=
EXTT2=
EXTT3=
EXTT4=
EXTT5=
EXTT6=
EXTT7=
EXTT8=
EXTT9=
EXTT10=
PLAYORDER=
